<svg width="32" height="33" viewBox="0 0 32 33" fill="none" xmlns="http://www.w3.org/2000/svg">
<path d="M16.0002 21.8334V17.8334M16.0002 17.8334V13.8334M16.0002 17.8334H12.0002M16.0002 17.8334H20.0002M5.3335 22.9002V15.7696C5.3335 15.0572 5.3335 14.7008 5.42012 14.3692C5.49689 14.0754 5.62323 13.7974 5.79378 13.5462C5.98623 13.2627 6.25435 13.0276 6.79053 12.5584L13.1926 6.95658C14.1866 6.08685 14.6836 5.65196 15.2434 5.48643C15.737 5.34046 16.2631 5.34046 16.7567 5.48643C17.3168 5.65208 17.8146 6.08739 18.8101 6.95843L25.2101 12.5584C25.7462 13.0276 26.0138 13.2627 26.2063 13.5462C26.3768 13.7974 26.5035 14.0754 26.5802 14.3692C26.6668 14.7006 26.6668 15.0578 26.6668 15.7696V22.9049C26.6668 24.3954 26.6668 25.1415 26.3765 25.7114C26.1208 26.2132 25.7124 26.6207 25.2107 26.8764C24.6408 27.1668 23.8955 27.1668 22.4049 27.1668H9.59604C8.10549 27.1668 7.3591 27.1668 6.78923 26.8764C6.28746 26.6207 5.87981 26.2132 5.62415 25.7114C5.3335 25.141 5.3335 24.3937 5.3335 22.9002Z" stroke="white" stroke-width="3" stroke-linecap="round" stroke-linejoin="round"/>
</svg>
