<svg width="32" height="33" viewBox="0 0 32 33" fill="none" xmlns="http://www.w3.org/2000/svg">
<path d="M6.33039 10.6934L5.88875 15.5513C5.82334 16.2708 5.79036 16.6336 5.85024 16.9779C5.90374 17.2856 6.01058 17.5817 6.16645 17.8523C6.34157 18.1563 6.60041 18.4151 7.11513 18.9298L14.0158 25.8305C15.0652 26.8799 15.5902 27.4049 16.1971 27.6021C16.7327 27.7761 17.3106 27.7765 17.8461 27.6025C18.455 27.4046 18.9841 26.8762 20.0401 25.8201L25.3199 20.5404C26.3759 19.4844 26.9031 18.9566 27.1009 18.3477C27.2749 17.8121 27.2739 17.2349 27.0999 16.6993C26.902 16.0904 26.3757 15.5628 25.3196 14.5067L18.436 7.62309C17.9166 7.10367 17.6568 6.84393 17.3513 6.66801C17.0807 6.51215 16.7847 6.40485 16.477 6.35135C16.1298 6.29097 15.7638 6.32417 15.0322 6.39067L10.1925 6.83065C8.93281 6.94516 8.30258 7.00268 7.80968 7.27677C7.37511 7.51842 7.01686 7.87667 6.7752 8.31124C6.50248 8.80168 6.44559 9.42745 6.33222 10.6746L6.33039 10.6934Z" stroke="white" stroke-width="3" stroke-linecap="round" stroke-linejoin="round"/>
<path d="M12.95 13.4507C13.4707 12.93 13.4707 12.0857 12.95 11.565C12.4293 11.0443 11.5844 11.0443 11.0637 11.565C10.543 12.0857 10.5425 12.9298 11.0632 13.4505C11.5839 13.9712 12.4293 13.9714 12.95 13.4507Z" stroke="white" stroke-width="3" stroke-linecap="round" stroke-linejoin="round"/>
</svg>
