<svg width="48" height="48" viewBox="0 0 48 48" fill="none" xmlns="http://www.w3.org/2000/svg">
<path d="M18 40H6V25.2002C6 24.0801 6 23.5196 6.21799 23.0918C6.40973 22.7155 6.71547 22.4097 7.0918 22.218C7.51962 22 8.07911 22 9.19922 22H18V11.2002C18 10.0801 18 9.51962 18.218 9.0918C18.4097 8.71547 18.7155 8.40973 19.0918 8.21799C19.5196 8 20.0791 8 21.1992 8H26.7992C27.9193 8 28.4806 8 28.9084 8.21799C29.2847 8.40973 29.5895 8.71547 29.7812 9.0918C29.9992 9.51962 30 10.0801 30 11.2002V16H38.8C39.9201 16 40.4817 16 40.9095 16.218C41.2859 16.4097 41.5895 16.7155 41.7812 17.0918C41.9992 17.5196 42 18.0801 42 19.2002V40.0002L30 40H18Z" fill="#EEEEEE"/>
<path d="M18 22V40M18 22H9.19922C8.07911 22 7.51962 22 7.0918 22.218C6.71547 22.4097 6.40973 22.7155 6.21799 23.0918C6 23.5196 6 24.0801 6 25.2002V40H18M18 22V11.2002C18 10.0801 18 9.51962 18.218 9.0918C18.4097 8.71547 18.7155 8.40973 19.0918 8.21799C19.5196 8 20.0791 8 21.1992 8H26.7992C27.9193 8 28.4806 8 28.9084 8.21799C29.2847 8.40973 29.5895 8.71547 29.7812 9.0918C29.9992 9.51962 30 10.0801 30 11.2002V16M18 40H30M30 40L42 40.0002V19.2002C42 18.0801 41.9992 17.5196 41.7812 17.0918C41.5895 16.7155 41.2859 16.4097 40.9095 16.218C40.4817 16 39.9201 16 38.8 16H30M30 40V16" stroke="#3B3B3B" stroke-width="3" stroke-linecap="round" stroke-linejoin="round"/>
</svg>
