<svg width="42" height="39" viewBox="0 0 42 39" fill="none" xmlns="http://www.w3.org/2000/svg">
<mask id="path-1-inside-1_38_4684" fill="white">
<path fill-rule="evenodd" clip-rule="evenodd" d="M37.0015 12.5745L37.7551 12.9913L37.7587 12.993C38.9849 13.6711 39.5984 14.0104 40.0458 14.4926C40.4419 14.9197 40.7423 15.4263 40.9264 15.9776C41.1345 16.6008 41.1363 17.299 41.1395 18.6965L41.1421 19.8711C41.1453 21.2615 41.1469 21.9611 40.9405 22.5848C40.7568 23.1398 40.4563 23.6487 40.0579 24.0784C39.6076 24.564 38.9875 24.9057 37.7496 25.5876L37.0055 25.9975L37.0016 25.9993C36.8889 26.0614 36.8316 26.093 36.7764 26.1257C36.2108 26.4609 35.7345 26.9264 35.3873 27.4825C35.3529 27.5375 35.3187 27.5943 35.2524 27.7082L35.2519 27.7092C35.1863 27.8221 35.153 27.8794 35.1224 27.9361C34.8114 28.5127 34.6443 29.1557 34.6345 29.8098C34.6335 29.8745 34.6338 29.94 34.636 30.0715L34.6512 30.9706C34.6746 32.3491 34.6863 33.0434 34.4913 33.6663C34.3175 34.2214 34.0268 34.7331 33.6383 35.1677C33.2005 35.6576 32.5935 36.0078 31.383 36.7061L30.3643 37.2939C29.1443 37.9977 28.5326 38.3506 27.8834 38.4854C27.3083 38.6048 26.7144 38.5996 26.1412 38.4717C25.4931 38.3272 24.8872 37.9659 23.6743 37.2421L22.9002 36.7802C22.8114 36.7271 22.7609 36.6969 22.7104 36.669C22.1368 36.3512 21.4943 36.1747 20.8379 36.1537C20.7718 36.1516 20.7047 36.1516 20.5702 36.1516C20.4359 36.1516 20.3688 36.1516 20.3028 36.1537C19.6479 36.1746 19.0092 36.3505 18.4365 36.667C18.3788 36.6989 18.3205 36.7333 18.2053 36.8018L17.4771 37.2352C16.2694 37.954 15.6645 38.3141 15.0192 38.458C14.4483 38.5855 13.8566 38.59 13.2836 38.4722C12.6359 38.3389 12.026 37.9898 10.806 37.2909L9.78998 36.7089C8.56649 36.0081 7.95446 35.6575 7.51298 35.1657C7.12241 34.7306 6.83023 34.218 6.65542 33.6614C6.45782 33.0322 6.46821 32.3296 6.49204 30.9261L6.5062 30.0925C6.5086 29.9514 6.50961 29.8812 6.50842 29.8118C6.49741 29.1695 6.3358 28.5383 6.03395 27.9703C6.00803 27.9215 5.97991 27.8728 5.93403 27.7933L5.89475 27.7252C5.82336 27.6012 5.78765 27.5392 5.75046 27.4795C5.40619 26.9266 4.93407 26.4628 4.37366 26.1273C4.3237 26.0974 4.27194 26.0689 4.18478 26.0208L3.38704 25.5797C2.15844 24.9003 1.54574 24.5611 1.09798 24.0784C0.701848 23.6513 0.403109 23.1447 0.218993 22.5934C0.0108795 21.9702 0.00649921 21.272 0.00330577 19.8744L0.000678133 18.7245C-0.00253679 17.3176 -0.0027115 16.614 0.204938 15.9866C0.388634 15.4316 0.689569 14.922 1.08793 14.4923C1.53824 14.0067 2.15709 13.6654 3.39508 12.9834L4.19686 12.5418C4.2762 12.4982 4.32411 12.4718 4.36989 12.4447C4.93543 12.1095 5.41127 11.6444 5.7585 11.0883C5.78488 11.0461 5.80993 11.0028 5.85016 10.9333L5.89114 10.8627C5.95732 10.7488 5.99045 10.6918 6.02121 10.6348C6.33219 10.0582 6.50213 9.41561 6.51187 8.76152C6.51243 8.72407 6.51137 8.68639 6.50995 8.63578C6.50891 8.59897 6.50768 8.55529 6.50675 8.4999L6.49204 7.63119C6.46837 6.2325 6.4579 5.53278 6.65434 4.90531C6.82813 4.35019 7.11849 3.83834 7.50695 3.40372C7.9447 2.91394 8.55104 2.56413 9.76078 1.8662L9.77189 1.85945L10.7755 1.28046L10.7809 1.27806C12.0016 0.573787 12.612 0.22165 13.2614 0.0868232C13.8365 -0.0325861 14.4299 -0.0290477 15.0032 0.0988095C15.6512 0.243327 16.2584 0.605716 17.4711 1.3294L18.2652 1.80337C18.3416 1.84904 18.3877 1.87662 18.4342 1.9024C19.0078 2.22021 19.6485 2.39617 20.3048 2.41716C20.3706 2.41926 20.4407 2.41926 20.5741 2.41926C20.7083 2.41926 20.7755 2.41926 20.8415 2.41716C21.4964 2.39626 22.1357 2.22125 22.7084 1.90475C22.7661 1.87286 22.8244 1.83832 22.9395 1.76979L23.6677 1.33639L23.6745 1.33314C24.879 0.616247 25.4815 0.257593 26.126 0.113792C26.6969 -0.0136179 27.2883 -0.019081 27.8613 0.0988095C28.509 0.232066 29.1192 0.581609 30.3393 1.28046L31.3555 1.86257C32.5789 2.56337 33.19 2.91422 33.6315 3.406C34.022 3.84105 34.3145 4.35371 34.4893 4.91031C34.6861 5.53693 34.6743 6.23515 34.6508 7.62728L34.636 8.49722C34.6338 8.63052 34.6335 8.69757 34.6345 8.76319C34.6446 9.41594 34.8123 10.0573 35.1224 10.6328C35.1535 10.6905 35.1873 10.7487 35.254 10.8635L35.3021 10.9466C35.3394 11.011 35.3636 11.053 35.389 11.0935C35.7346 11.6467 36.2084 12.1091 36.7703 12.4437C36.8269 12.4773 36.8844 12.5098 37.0015 12.5745ZM20.5714 25.7143C24.3585 25.7143 27.4286 22.8361 27.4286 19.2857C27.4286 15.7353 24.3585 12.8571 20.5714 12.8571C16.7843 12.8571 13.7143 15.7353 13.7143 19.2857C13.7143 22.8361 16.7843 25.7143 20.5714 25.7143Z"/>
</mask>
<path fill-rule="evenodd" clip-rule="evenodd" d="M37.0015 12.5745L37.7551 12.9913L37.7587 12.993C38.9849 13.6711 39.5984 14.0104 40.0458 14.4926C40.4419 14.9197 40.7423 15.4263 40.9264 15.9776C41.1345 16.6008 41.1363 17.299 41.1395 18.6965L41.1421 19.8711C41.1453 21.2615 41.1469 21.9611 40.9405 22.5848C40.7568 23.1398 40.4563 23.6487 40.0579 24.0784C39.6076 24.564 38.9875 24.9057 37.7496 25.5876L37.0055 25.9975L37.0016 25.9993C36.8889 26.0614 36.8316 26.093 36.7764 26.1257C36.2108 26.4609 35.7345 26.9264 35.3873 27.4825C35.3529 27.5375 35.3187 27.5943 35.2524 27.7082L35.2519 27.7092C35.1863 27.8221 35.153 27.8794 35.1224 27.9361C34.8114 28.5127 34.6443 29.1557 34.6345 29.8098C34.6335 29.8745 34.6338 29.94 34.636 30.0715L34.6512 30.9706C34.6746 32.3491 34.6863 33.0434 34.4913 33.6663C34.3175 34.2214 34.0268 34.7331 33.6383 35.1677C33.2005 35.6576 32.5935 36.0078 31.383 36.7061L30.3643 37.2939C29.1443 37.9977 28.5326 38.3506 27.8834 38.4854C27.3083 38.6048 26.7144 38.5996 26.1412 38.4717C25.4931 38.3272 24.8872 37.9659 23.6743 37.2421L22.9002 36.7802C22.8114 36.7271 22.7609 36.6969 22.7104 36.669C22.1368 36.3512 21.4943 36.1747 20.8379 36.1537C20.7718 36.1516 20.7047 36.1516 20.5702 36.1516C20.4359 36.1516 20.3688 36.1516 20.3028 36.1537C19.6479 36.1746 19.0092 36.3505 18.4365 36.667C18.3788 36.6989 18.3205 36.7333 18.2053 36.8018L17.4771 37.2352C16.2694 37.954 15.6645 38.3141 15.0192 38.458C14.4483 38.5855 13.8566 38.59 13.2836 38.4722C12.6359 38.3389 12.026 37.9898 10.806 37.2909L9.78998 36.7089C8.56649 36.0081 7.95446 35.6575 7.51298 35.1657C7.12241 34.7306 6.83023 34.218 6.65542 33.6614C6.45782 33.0322 6.46821 32.3296 6.49204 30.9261L6.5062 30.0925C6.5086 29.9514 6.50961 29.8812 6.50842 29.8118C6.49741 29.1695 6.3358 28.5383 6.03395 27.9703C6.00803 27.9215 5.97991 27.8728 5.93403 27.7933L5.89475 27.7252C5.82336 27.6012 5.78765 27.5392 5.75046 27.4795C5.40619 26.9266 4.93407 26.4628 4.37366 26.1273C4.3237 26.0974 4.27194 26.0689 4.18478 26.0208L3.38704 25.5797C2.15844 24.9003 1.54574 24.5611 1.09798 24.0784C0.701848 23.6513 0.403109 23.1447 0.218993 22.5934C0.0108795 21.9702 0.00649921 21.272 0.00330577 19.8744L0.000678133 18.7245C-0.00253679 17.3176 -0.0027115 16.614 0.204938 15.9866C0.388634 15.4316 0.689569 14.922 1.08793 14.4923C1.53824 14.0067 2.15709 13.6654 3.39508 12.9834L4.19686 12.5418C4.2762 12.4982 4.32411 12.4718 4.36989 12.4447C4.93543 12.1095 5.41127 11.6444 5.7585 11.0883C5.78488 11.0461 5.80993 11.0028 5.85016 10.9333L5.89114 10.8627C5.95732 10.7488 5.99045 10.6918 6.02121 10.6348C6.33219 10.0582 6.50213 9.41561 6.51187 8.76152C6.51243 8.72407 6.51137 8.68639 6.50995 8.63578C6.50891 8.59897 6.50768 8.55529 6.50675 8.4999L6.49204 7.63119C6.46837 6.2325 6.4579 5.53278 6.65434 4.90531C6.82813 4.35019 7.11849 3.83834 7.50695 3.40372C7.9447 2.91394 8.55104 2.56413 9.76078 1.8662L9.77189 1.85945L10.7755 1.28046L10.7809 1.27806C12.0016 0.573787 12.612 0.22165 13.2614 0.0868232C13.8365 -0.0325861 14.4299 -0.0290477 15.0032 0.0988095C15.6512 0.243327 16.2584 0.605716 17.4711 1.3294L18.2652 1.80337C18.3416 1.84904 18.3877 1.87662 18.4342 1.9024C19.0078 2.22021 19.6485 2.39617 20.3048 2.41716C20.3706 2.41926 20.4407 2.41926 20.5741 2.41926C20.7083 2.41926 20.7755 2.41926 20.8415 2.41716C21.4964 2.39626 22.1357 2.22125 22.7084 1.90475C22.7661 1.87286 22.8244 1.83832 22.9395 1.76979L23.6677 1.33639L23.6745 1.33314C24.879 0.616247 25.4815 0.257593 26.126 0.113792C26.6969 -0.0136179 27.2883 -0.019081 27.8613 0.0988095C28.509 0.232066 29.1192 0.581609 30.3393 1.28046L31.3555 1.86257C32.5789 2.56337 33.19 2.91422 33.6315 3.406C34.022 3.84105 34.3145 4.35371 34.4893 4.91031C34.6861 5.53693 34.6743 6.23515 34.6508 7.62728L34.636 8.49722C34.6338 8.63052 34.6335 8.69757 34.6345 8.76319C34.6446 9.41594 34.8123 10.0573 35.1224 10.6328C35.1535 10.6905 35.1873 10.7487 35.254 10.8635L35.3021 10.9466C35.3394 11.011 35.3636 11.053 35.389 11.0935C35.7346 11.6467 36.2084 12.1091 36.7703 12.4437C36.8269 12.4773 36.8844 12.5098 37.0015 12.5745ZM20.5714 25.7143C24.3585 25.7143 27.4286 22.8361 27.4286 19.2857C27.4286 15.7353 24.3585 12.8571 20.5714 12.8571C16.7843 12.8571 13.7143 15.7353 13.7143 19.2857C13.7143 22.8361 16.7843 25.7143 20.5714 25.7143Z" fill="#EEEEEE" stroke="#3B3B3B" stroke-width="6" mask="url(#path-1-inside-1_38_4684)"/>
</svg>
